<svg width="214" height="30" viewBox="0 0 214 30" fill="none" xmlns="http://www.w3.org/2000/svg">
<path d="M19.032 1.00016C10.5762 4.20901 9.80155 12.4269 7.3769 16.2648C4.92354 20.1483 -0.697016 22.2911 0.0715786 24.2701C0.840173 26.2492 6.46741 24.1236 10.9194 25.3864C15.3186 26.634 21.4567 32.2292 29.9126 29.0204C34.2203 27.3859 37.3394 24.0213 38.7738 20.0361C38.928 19.6083 38.6396 19.1509 38.1821 19.1086C37.8977 19.0822 37.6246 19.2294 37.4963 19.4816C36.1989 22.0363 33.9732 24.1401 31.0604 25.2451C26.2519 27.0697 20.9906 25.6372 17.7593 22.0442C17.0254 21.2283 16.3977 20.2995 15.9022 19.273C15.766 18.9905 15.6365 18.7033 15.5216 18.4063C15.4061 18.1092 15.3079 17.8102 15.2178 17.5098C17.7593 16.3388 20.6921 15.0984 24.0169 13.8369C27.2769 12.5998 30.2438 11.5964 32.8854 10.7937C34.6724 10.2511 36.3104 9.79959 37.7895 9.43058C37.8963 9.40418 38.0018 9.37777 38.1067 9.35203C38.3304 9.29724 38.5601 9.4154 38.6429 9.62796L38.6442 9.63192C38.693 9.758 38.735 9.88474 38.7805 10.0115C39.0729 10.8294 39.292 11.6559 39.4369 12.4843C39.5003 12.8467 39.901 13.0441 40.2295 12.8698C41.4435 12.2255 42.554 11.5971 43.5463 10.9924C47.2437 8.74141 49.2937 6.83234 48.873 5.7504C48.453 4.6678 45.6377 4.60575 41.366 5.37809C40.0085 5.62366 38.5033 5.95372 36.8813 6.36233C36.6009 6.43297 36.3171 6.50624 36.0299 6.58149C34.665 6.93928 33.2253 7.34921 31.7262 7.808C28.9383 8.66154 25.9474 9.68407 22.8597 10.8558C19.9709 11.9522 17.2331 13.089 14.7223 14.2217C14.6916 9.41408 17.6317 4.86913 22.4403 3.04456C25.3524 1.93951 28.4308 2.02995 31.1245 3.07096C31.3903 3.17394 31.6928 3.10265 31.8871 2.89471C32.1983 2.56135 32.1028 2.03061 31.6988 1.81409C27.9353 -0.197301 23.3398 -0.634302 19.032 1.00016Z" fill="#FFF4E1"/>
<path d="M57.1521 27.3125V7.43606L62.0025 2.64315H72.2738L77.1241 7.43606V27.3125H71.4178V19.8412H62.8584V27.3125H57.1521ZM62.8584 14.2025H71.4178V8.28187H62.8584V14.2025Z" fill="#FFF4E1"/>
<path d="M84.8151 27.3125L79.9648 22.5196V7.43606L84.8151 2.64315H95.0864L99.9368 7.43606V11.207H94.2305V8.28187H85.6711V21.6738H94.2305V18.7487H99.9368V22.5196L95.0864 27.3125H84.8151Z" fill="#FFF4E1"/>
<path d="M102.777 27.3125V7.43606L107.628 2.64315H117.899L122.749 7.43606V27.3125H117.043V19.8412H108.484V27.3125H102.777ZM108.484 14.2025H117.043V8.28187H108.484V14.2025Z" fill="#FFF4E1"/>
<path d="M125.59 27.3125V2.64315H140.712L145.562 7.43606V22.5196L140.712 27.3125H125.59ZM131.296 21.6738H139.856V8.28187H131.296V21.6738Z" fill="#FFF4E1"/>
<path d="M148.403 27.3125V2.64315H163.524L168.375 7.43606V11.207H162.668V8.28187H154.109V12.1585H160.671V17.7972H154.109V21.6738H162.668V18.7487H168.375V22.5196L163.524 27.3125H148.403Z" fill="#FFF4E1"/>
<path d="M171.215 27.3125V2.64315H176.922V6.69598L181.201 10.925L185.481 6.69598V2.64315H191.187V27.3125H185.481V14.8369L181.201 19.0659L176.922 14.8369V27.3125H171.215Z" fill="#FFF4E1"/>
<path d="M201.161 27.3125V17.1981L194.028 10.1497V2.64315H199.734V7.68275L204.014 11.9118L208.294 7.68275V2.64315H214V10.1497L206.867 17.1981V27.3125H201.161Z" fill="#FFF4E1"/>
</svg>
