<svg width="48" height="48" viewBox="0 0 48 48" fill="none" xmlns="http://www.w3.org/2000/svg">
<path d="M18.423 20.783C18.423 23.8726 20.9275 26.3771 24.0171 26.3771C27.1067 26.3771 29.6113 23.8726 29.6113 20.783C29.6113 17.6934 27.1067 15.1889 24.0171 15.1889C20.9275 15.1889 18.423 17.6934 18.423 20.783Z" fill="#A3A18B"/>
<path d="M9.56011 24.7792C9.29075 26.3743 8.23469 27.7262 6.75236 28.374C5.27004 29.0215 3.56075 28.8781 2.20711 27.9922C0.853199 27.1067 0.0372315 25.598 0.0372315 23.98C0.0372315 22.362 0.853162 20.8533 2.20711 19.9678C3.56066 19.0819 5.26995 18.9384 6.75236 19.586C8.23469 20.2339 9.29077 21.5857 9.56011 23.1808H12.0296C12.2037 20.561 13.2373 18.0722 14.9705 16.1004L7.57043 8.70813C6.25149 9.64429 4.54933 9.85226 3.0438 9.26148C1.53828 8.67071 0.431515 7.36067 0.101165 5.7776C-0.229203 4.19426 0.260996 2.55101 1.40448 1.40716C2.54824 0.263677 4.19158 -0.226505 5.77492 0.103845C7.3579 0.434213 8.66797 1.54087 9.2588 3.04649C9.84963 4.5521 9.64161 6.25418 8.70545 7.57311L16.0977 14.9654C18.0838 13.2312 20.5865 12.2005 23.2181 12.0324V9.52288C21.623 9.25352 20.2712 8.19746 19.6233 6.71513C18.9758 5.23281 19.1192 3.52352 20.0051 2.16988C20.8906 0.815965 22.3994 0 24.0173 0C25.6353 0 27.144 0.815928 28.0296 2.16988C28.9154 3.52343 29.0589 5.23271 28.4113 6.71513C27.7634 8.19746 26.4116 9.25354 24.8165 9.52288V12.0324C27.4341 12.209 29.9216 13.2394 31.8969 14.9654L39.2892 7.57311C38.353 6.25418 38.1451 4.55201 38.7358 3.04649C39.3266 1.54096 40.6366 0.434195 42.2197 0.103845C43.8031 -0.226523 45.4463 0.263677 46.5902 1.40716C47.7336 2.55092 48.2238 4.19426 47.8935 5.7776C47.5631 7.36058 46.4564 8.67065 44.9508 9.26148C43.4452 9.85231 41.7431 9.64429 40.4242 8.70813L33.0242 16.1004C34.7574 18.0723 35.7909 20.5611 35.965 23.1808H38.4745C38.7439 21.5857 39.7999 20.2338 41.2823 19.586C42.7646 18.9385 44.4739 19.0819 45.8275 19.9678C47.1814 20.8533 47.9974 22.362 47.9974 23.98C47.9974 25.598 47.1815 27.1067 45.8275 27.9922C44.474 28.8781 42.7647 29.0216 41.2823 28.374C39.7999 27.7261 38.7439 26.3743 38.4745 24.7792H35.965C35.7909 27.399 34.7573 29.8878 33.0242 31.8596L40.4242 39.2519C41.7431 38.3157 43.4453 38.1077 44.9508 38.6985C46.4564 39.2893 47.5631 40.5993 47.8935 42.1824C48.2238 43.7657 47.7336 45.409 46.5902 46.5528C45.4464 47.6963 43.8031 48.1865 42.2197 47.8562C40.6367 47.5258 39.3267 46.4191 38.7358 44.9135C38.145 43.4079 38.353 41.7058 39.2892 40.3869L31.8969 32.9946C29.9269 34.7353 27.4388 35.7799 24.8165 35.9676V38.4771C26.4117 38.7465 27.7635 39.8025 28.4113 41.2849C29.0588 42.7672 28.9154 44.4765 28.0296 45.8301C27.1441 47.184 25.6353 48 24.0173 48C22.3994 48 20.8906 47.1841 20.0051 45.8301C19.1192 44.4766 18.9758 42.7673 19.6233 41.2849C20.2712 39.8025 21.6231 38.7465 23.2181 38.4771V35.9676C20.6005 35.791 18.1131 34.7606 16.1377 33.0346L8.74546 40.4269C9.68162 41.7458 9.88958 43.448 9.2988 44.9535C8.70803 46.459 7.39799 47.5658 5.81492 47.8962C4.23158 48.2265 2.58833 47.7363 1.44448 46.5928C0.300999 45.4491 -0.189182 43.8057 0.141168 42.2224C0.471536 40.6394 1.5782 39.3293 3.08381 38.7385C4.58943 38.1477 6.2915 38.3557 7.61043 39.2919L15.0105 31.8996C13.2548 29.9224 12.2063 27.4175 12.0296 24.7792H9.56011ZM14.9944 29.1025C16.2577 27.3722 18.2784 26.3575 20.4208 26.3775C20.5582 26.3779 20.693 26.4136 20.8126 26.4814L24.017 28.2955L27.2137 26.4814C27.3353 26.4125 27.4734 26.3765 27.6133 26.3775C29.7506 26.3857 31.7589 27.4018 33.0315 29.1186C33.9323 27.556 34.4065 25.7839 34.4061 23.9801C34.4147 20.7524 32.9227 17.7038 30.3682 15.7305C27.8137 13.7573 24.4872 13.0837 21.3663 13.9071C18.2453 14.7309 15.6844 16.9581 14.4361 19.935C13.1881 22.9116 13.3943 26.299 14.9944 29.1025Z" fill="#A3A18B"/>
</svg>
