<svg width="36" height="48" viewBox="0 0 36 48" fill="none" xmlns="http://www.w3.org/2000/svg">
<path d="M34.9071 0H4.46424C1.99813 0 0.00114301 1.99689 0.00114301 4.4457V37.6844C0.947334 36.8121 2.2116 36.3292 3.51767 36.3211H34.039C34.5053 36.3144 35.337 36.2838 35.7755 36.4689V0.868492C35.7755 0.390781 35.3933 0 34.9071 0ZM30.6092 12.0865C30.6092 12.5643 30.2272 12.9548 29.741 12.9548H6.03612C5.54991 12.9548 5.16789 12.5639 5.16789 12.0865V6.7811C5.16789 6.29489 5.54991 5.91287 6.03612 5.91287H29.741C30.2272 5.91287 30.6092 6.29489 30.6092 6.7811V12.0865Z" fill="#A3A18B"/>
<path d="M18.7564 42.4433C18.7557 43.0193 18.7568 44.5067 18.7564 45.1005H34.9071C35.3848 45.1005 35.7754 44.7096 35.7754 44.2323V42.4437C35.3486 42.446 19.672 42.4419 18.7564 42.4433Z" fill="#A3A18B"/>
<path d="M12.9472 48L14.5536 47.0797C14.8152 46.9263 15.151 46.9293 15.4133 47.0797L17.0197 48C17.0197 48 17.0208 43.7105 17.0197 42.443H12.9471C12.9471 42.443 12.9465 46.6422 12.9472 48Z" fill="#A3A18B"/>
<path d="M35.7063 38.5873C35.4632 37.9189 34.5972 38.0671 34.039 38.0575H3.51758C1.6112 38.0467 -0.00519128 39.6299 0.00105108 41.5744C-0.047348 43.4516 1.58236 45.1134 3.51758 45.0997H11.2108C11.2204 44.4919 11.2038 43.03 11.2108 42.4425H6.71301C6.25266 42.4425 5.87065 42.0864 5.85329 41.6264C5.81301 41.1402 6.21942 40.7009 6.71301 40.7061H35.775C35.761 40.4456 35.8297 38.7871 35.7063 38.5873Z" fill="#A3A18B"/>
<path d="M6.90444 7.64974H28.8728V11.2183H6.90444V7.64974Z" fill="#A3A18B"/>
</svg>
